<mxfile host="Electron" agent="Mozilla/5.0 (X11; Linux x86_64) AppleWebKit/537.36 (KHTML, like Gecko) draw.io/24.7.17 Chrome/128.0.6613.36 Electron/32.0.1 Safari/537.36" version="24.7.17">
  <diagram name="Page-1" id="XY9Cs1G44GHrqSQphju0">
    <mxGraphModel dx="574" dy="334" grid="1" gridSize="10" guides="1" tooltips="1" connect="1" arrows="1" fold="1" page="1" pageScale="1" pageWidth="850" pageHeight="1100" math="0" shadow="0">
      <root>
        <mxCell id="0" />
        <mxCell id="1" parent="0" />
        <mxCell id="hZDvgyln9m5gEl3mzS09-12" value="" style="group" vertex="1" connectable="0" parent="1">
          <mxGeometry x="280" y="120" width="130" height="120" as="geometry" />
        </mxCell>
        <mxCell id="hZDvgyln9m5gEl3mzS09-7" value="&lt;font style=&quot;font-size: 30px;&quot;&gt;Î£&lt;/font&gt;" style="whiteSpace=wrap;html=1;aspect=fixed;" vertex="1" parent="hZDvgyln9m5gEl3mzS09-12">
          <mxGeometry width="120" height="120" as="geometry" />
        </mxCell>
        <mxCell id="hZDvgyln9m5gEl3mzS09-8" value="" style="triangle;whiteSpace=wrap;html=1;fillColor=#000000;" vertex="1" parent="hZDvgyln9m5gEl3mzS09-12">
          <mxGeometry y="35" width="11.666666666666668" height="10" as="geometry" />
        </mxCell>
        <mxCell id="hZDvgyln9m5gEl3mzS09-9" value="" style="triangle;whiteSpace=wrap;html=1;fillColor=#000000;" vertex="1" parent="hZDvgyln9m5gEl3mzS09-12">
          <mxGeometry y="75" width="11.666666666666668" height="10" as="geometry" />
        </mxCell>
        <mxCell id="hZDvgyln9m5gEl3mzS09-11" value="" style="triangle;whiteSpace=wrap;html=1;" vertex="1" parent="hZDvgyln9m5gEl3mzS09-12">
          <mxGeometry x="120" y="56.25" width="10" height="7.5" as="geometry" />
        </mxCell>
        <mxCell id="hZDvgyln9m5gEl3mzS09-14" value="" style="group" vertex="1" connectable="0" parent="1">
          <mxGeometry x="80" y="120" width="90" height="80" as="geometry" />
        </mxCell>
        <mxCell id="hZDvgyln9m5gEl3mzS09-3" value="" style="group" vertex="1" connectable="0" parent="hZDvgyln9m5gEl3mzS09-14">
          <mxGeometry width="80" height="80" as="geometry" />
        </mxCell>
        <mxCell id="hZDvgyln9m5gEl3mzS09-6" value="" style="group" vertex="1" connectable="0" parent="hZDvgyln9m5gEl3mzS09-3">
          <mxGeometry width="80" height="80" as="geometry" />
        </mxCell>
        <mxCell id="hZDvgyln9m5gEl3mzS09-1" value="&lt;font size=&quot;1&quot;&gt;&lt;b style=&quot;font-size: 18px;&quot;&gt;-&lt;/b&gt;&lt;/font&gt;" style="triangle;whiteSpace=wrap;html=1;" vertex="1" parent="hZDvgyln9m5gEl3mzS09-6">
          <mxGeometry width="80" height="80" as="geometry" />
        </mxCell>
        <mxCell id="hZDvgyln9m5gEl3mzS09-2" value="" style="triangle;whiteSpace=wrap;html=1;fillColor=#000000;" vertex="1" parent="hZDvgyln9m5gEl3mzS09-6">
          <mxGeometry y="35" width="11.666666666666668" height="10" as="geometry" />
        </mxCell>
        <mxCell id="hZDvgyln9m5gEl3mzS09-4" value="" style="triangle;whiteSpace=wrap;html=1;" vertex="1" parent="hZDvgyln9m5gEl3mzS09-14">
          <mxGeometry x="80" y="36.25" width="10" height="7.5" as="geometry" />
        </mxCell>
        <mxCell id="hZDvgyln9m5gEl3mzS09-17" value="" style="group" vertex="1" connectable="0" parent="1">
          <mxGeometry x="80" y="240" width="90" height="80" as="geometry" />
        </mxCell>
        <mxCell id="hZDvgyln9m5gEl3mzS09-15" value="&lt;p style=&quot;line-height: 100%; font-size: 21px;&quot;&gt;10&lt;/p&gt;" style="ellipse;whiteSpace=wrap;html=1;aspect=fixed;pointerEvents=0;align=center;verticalAlign=top;fontFamily=Helvetica;fontSize=21;fontColor=default;fillColor=none;gradientColor=none;" vertex="1" parent="hZDvgyln9m5gEl3mzS09-17">
          <mxGeometry width="80" height="80" as="geometry" />
        </mxCell>
        <mxCell id="hZDvgyln9m5gEl3mzS09-16" value="" style="triangle;whiteSpace=wrap;html=1;" vertex="1" parent="hZDvgyln9m5gEl3mzS09-17">
          <mxGeometry x="80" y="36.25" width="10" height="7.5" as="geometry" />
        </mxCell>
        <mxCell id="hZDvgyln9m5gEl3mzS09-18" value="" style="rounded=0;whiteSpace=wrap;html=1;pointerEvents=0;align=center;verticalAlign=top;fontFamily=Helvetica;fontSize=12;fontColor=default;fillColor=none;gradientColor=none;" vertex="1" parent="1">
          <mxGeometry x="520" y="40" width="120" height="60" as="geometry" />
        </mxCell>
      </root>
    </mxGraphModel>
  </diagram>
</mxfile>
